:version 1.10
:name ASF
:units
  mass 1
  length 1
  angle deg
:documentation
  ASF file generated by Kaydara
:root
  axis xyz
  order  tx ty tz rx ry rz
  position 0 0 0
  orientation 0 0 0
:bonedata
  begin
    id 1
    name LeftUpLegDummy
    direction 1 -2.30186e-007 -8.31532e-007
    length 2.93387
    axis 0 0 0 xyz
  end
  begin
    id 2
    name LeftUpLeg
    direction -1.82929e-007 -1 -1.48925e-009
    length 17.3336
    axis -3.48766 0.00143442 -0.000521554 xyz
    dof rx ry rz
  end
  begin
    id 3
    name LeftLeg
    direction -1.82929e-007 -1 -5.23717e-011
    length 14.9995
    axis 3.68178 -0.00654042 -0.000282425 xyz
    dof rx ry rz
  end
  begin
    id 4
    name LeftFoot
    direction 8.31532e-007 -4.54534e-011 1
    length 6.74421
    axis 1.87234e-006 4.66016e-005 -5.96866e-006 xyz
    dof rx ry rz
  end
  begin
    id 5
    name LeftToes
    direction 0.00818058 -0.00485161 0.999955
    length 3.85048
    axis 1.06247e-005 4.65869e-005 -5.96999e-006 xyz
    dof rx ry rz
  end
  begin
    id 6
    name SpineDummy
    direction -5.8607e-008 0.943407 -0.331637
    length 5.93572
    axis 0 0 0 xyz
  end
  begin
    id 7
    name Spine
    direction -1.04988e-007 0.999988 0.00495137
    length 10.1015
    axis -0.001389 0.000121417 6.61666e-006 xyz
    dof rx ry rz
  end
  begin
    id 8
    name Spine1
    direction 0 0 0
    length 0
    axis -0.001389 0.00012144 6.56766e-006 xyz
    dof rx ry rz
  end
  begin
    id 9
    name RightShoulderDummy
    direction -0.98348 0.17941 -0.0240696
    length 3.59882
    axis -0.001389 0.00012144 6.56766e-006 xyz
  end
  begin
    id 10
    name RightShoulder
    direction -0.978693 0.204882 0.0135597
    length 2.70001
    axis 0.215806 0.000203631 -0.00679732 xyz
    dof rx ry rz
  end
  begin
    id 11
    name RightArm
    direction -1 3.85509e-006 8.31394e-007
    length 10.2459
    axis -23.2009 -0.134239 -0.964098 xyz
    dof rx ry rz
  end
  begin
    id 12
    name RightForeArm
    direction -1 3.85569e-006 8.3129e-007
    length 8.16799
    axis -9.92322 0.0658061 0.17887 xyz
    dof rx ry rz
  end
  begin
    id 13
    name RightHand
    direction -0.992843 -0.0414604 0.112003
    length 5.28593
    axis -0.00960638 0.00330669 -0.185225 xyz
    dof rx ry rz
  end
  begin
    id 14
    name LeftShoulder1Dummy
    direction 0.983523 0.179172 -0.0240748
    length 3.59866
    axis -0.001389 0.00012144 6.56766e-006 xyz
  end
  begin
    id 15
    name LeftShoulder1
    direction 0.978627 0.205195 0.0135605
    length 2.70019
    axis -0.001389 0.00012144 6.57583e-006 xyz
    dof rx ry rz
  end
  begin
    id 16
    name LeftArm
    direction 1 3.51895e-006 -8.60188e-007
    length 10.2459
    axis -23.1894 0.134785 0.967513 xyz
    dof rx ry rz
  end
  begin
    id 17
    name LeftForeArm
    direction 1 3.51921e-006 -7.32029e-007
    length 8.16799
    axis -9.91835 -0.0656957 -0.177789 xyz
    dof rx ry rz
  end
  begin
    id 18
    name LeftHand
    direction 0.992938 -0.0411636 0.11126
    length 5.32135
    axis -0.00960237 -0.00340661 0.185177 xyz
    dof rx ry rz
  end
  begin
    id 19
    name HEadDummy
    direction 1.01974e-006 0.999861 -0.016675
    length 2.99946
    axis -0.001389 0.00012144 6.56766e-006 xyz
  end
  begin
    id 20
    name HEad
    direction -0.0222689 0.980941 0.193023
    length 5.12695
    axis -0.001389 0.00012144 6.56766e-006 xyz
    dof rx ry rz
  end
  begin
    id 21
    name RightUpLegDummy
    direction -1 2.30186e-007 8.31532e-007
    length 2.93387
    axis 0 0 0 xyz
  end
  begin
    id 22
    name RightUpLeg
    direction -1.82966e-007 -1 1.56832e-007
    length 17.3336
    axis -3.4909 -0.000906625 0.00028951 xyz
    dof rx ry rz
  end
  begin
    id 23
    name RightLeg
    direction -1.82786e-007 -1 -1.80317e-007
    length 14.9995
    axis 3.68513 0.0193739 -0.131021 xyz
    dof rx ry rz
  end
  begin
    id 24
    name RightFoot
    direction 8.31721e-007 -4.63324e-011 1
    length 6.74421
    axis 4.81691e-005 -0.120479 -0.188785 xyz
    dof rx ry rz
  end
  begin
    id 25
    name RightToes
    direction 0.00124746 -0.014064 0.9999
    length 3.85082
    axis 0.000481921 0.542163 -0.142575 xyz
    dof rx ry rz
  end
:hierarchy
  begin
    root LeftUpLegDummy SpineDummy RightUpLegDummy
    LeftUpLegDummy LeftUpLeg
    LeftUpLeg LeftLeg
    LeftLeg LeftFoot
    LeftFoot LeftToes
    SpineDummy Spine
    Spine Spine1
    Spine1 RightShoulderDummy LeftShoulder1Dummy HEadDummy
    RightShoulderDummy RightShoulder
    RightShoulder RightArm
    RightArm RightForeArm
    RightForeArm RightHand
    LeftShoulder1Dummy LeftShoulder1
    LeftShoulder1 LeftArm
    LeftArm LeftForeArm
    LeftForeArm LeftHand
    HEadDummy HEad
    RightUpLegDummy RightUpLeg
    RightUpLeg RightLeg
    RightLeg RightFoot
    RightFoot RightToes
  end

:SAMPLES-PER-SECOND 30
:FULLY-SPECIFIED
:DEGREES
197
root  42.2606 34.7613 56.7571 -169.641 31.7989 -177.545
LeftUpLeg  -16.5941 17.1941 7.58304
LeftLeg  10.8634 23.5651 2.88267
LeftFoot  13.3693 -0.683673 5.82834
LeftToes  -20.1079 2.48695e-006 -1.03773e-007
Spine  3.58972 0.518188 2.99604
Spine1  7.03008 0.962206 5.85891
RightShoulder  0.110518 5.98686 8.42159
RightArm  -30.8446 -10.8293 70.2838
RightForeArm  29.6042 17.0871 3.1014
RightHand  0.22539 -5.10788 -4.67383
LeftShoulder1  0.0291442 0.312896 -8.73541
LeftArm  -13.8931 7.86165 -73.1024
LeftForeArm  34.4539 -14.3462 -2.57581
LeftHand  0.133707 2.74627 5.3031
HEad  4.8641 28.6068 -2.27943
RightUpLeg  -12.1664 -14.442 6.24868
RightLeg  9.95683 -4.48122 -0.490187
RightFoot  -1.05546 -0.000692534 0.0967616
RightToes  -19.1482 -0.0767612 -0.169938
198
root  42.092 34.7733 56.6199 -169.677 32.1888 -177.61
LeftUpLeg  -16.3556 16.8903 7.25839
LeftLeg  10.8093 24.1786 2.93077
LeftFoot  13.0103 -0.666498 5.8401
LeftToes  -20.2791 2.48695e-006 -1.03773e-007
Spine  3.62324 0.613461 2.89491
Spine1  7.1 1.15449 5.66758
RightShoulder  0.109132 5.92268 8.358
RightArm  -29.9505 -10.8138 69.9649
RightForeArm  29.4609 17.2123 3.12566
RightHand  0.239059 -5.28924 -4.7961
LeftShoulder1  0.0291459 0.370946 -8.83509
LeftArm  -13.522 8.23749 -73.4331
LeftForeArm  34.2205 -14.4833 -2.60171
LeftHand  0.126884 2.73616 5.10482
HEad  5.15204 28.6053 -2.3199
RightUpLeg  -12.1675 -14.1688 5.75163
RightLeg  10.0645 -4.38261 -0.487735
RightFoot  -0.885942 -0.000360127 0.0820955
RightToes  -19.9137 -0.0809783 -0.176128
199
root  41.9138 34.788 56.4683 -169.682 32.4127 -177.723
LeftUpLeg  -16.1571 16.913 6.76468
LeftLeg  10.5127 24.3975 2.83161
LeftFoot  12.5709 -0.628148 5.69832
LeftToes  -19.5484 2.48695e-006 -1.03773e-007
Spine  3.62675 0.622492 2.78779
Spine1  7.10156 1.17845 5.45364
RightShoulder  0.108348 5.95027 8.31006
RightArm  -30.1347 -10.7952 69.5703
RightForeArm  29.0623 17.1336 3.11067
RightHand  0.253362 -5.43653 -4.95656
LeftShoulder1  0.0290865 0.434532 -8.85325
LeftArm  -13.0862 8.56693 -74.0168
LeftForeArm  33.9238 -14.5689 -2.61802
LeftHand  0.119477 2.86254 4.93702
HEad  5.22189 28.6529 -2.38163
RightUpLeg  -12.2381 -14.196 5.2289
RightLeg  10.1973 -4.14529 -0.471051
RightFoot  -0.663117 0.000480421 0.0619883
RightToes  -20.8058 -0.0859961 -0.183269
200
root  41.721 34.8067 56.2915 -169.661 32.5253 -177.922
LeftUpLeg  -16.0366 17.2744 6.08894
LeftLeg  10.137 24.1967 2.65409
LeftFoot  12.2189 -0.587298 5.48276
LeftToes  -19.2587 2.48695e-006 -1.03773e-007
Spine  3.58843 0.574812 2.65657
Spine1  7.01623 1.094 5.18258
RightShoulder  0.107978 5.98842 8.28152
RightArm  -31.1456 -10.7966 69.1692
RightForeArm  28.7777 16.9075 3.06724
RightHand  0.274961 -5.57532 -5.26616
LeftShoulder1  0.0290261 0.36399 -8.86116
LeftArm  -12.2036 9.03276 -74.566
LeftForeArm  33.2647 -14.8973 -2.68032
LeftHand  0.109616 2.94082 4.55503
HEad  5.04869 28.6584 -2.43035
RightUpLeg  -12.2683 -14.1619 4.608
RightLeg  10.1302 -4.10162 -0.461219
RightFoot  -0.362231 0.00165595 0.0387598
RightToes  -21.7313 -0.0913189 -0.190595
201
root  41.5084 34.8238 56.0979 -169.618 32.5695 -178.092
LeftUpLeg  -15.9755 17.8097 5.38622
LeftLeg  9.85478 23.7347 2.49168
LeftFoot  11.8775 -0.542397 5.2106
LeftToes  -19.3094 2.48695e-006 -1.03773e-007
Spine  3.56236 0.5076 2.53522
Spine1  6.95498 0.969327 4.92583
RightShoulder  0.107794 6.03043 8.26019
RightArm  -32.455 -10.7698 68.6964
RightForeArm  28.5338 16.6707 3.02182
RightHand  0.303706 -5.75497 -5.66021
LeftShoulder1  0.0290247 0.25698 -8.86291
LeftArm  -10.9369 9.35438 -75.1303
LeftForeArm  32.5212 -15.3529 -2.7669
LeftHand  0.10136 2.98697 4.14256
HEad  4.60441 28.6679 -2.55539
RightUpLeg  -12.2709 -13.9123 3.95249
RightLeg  10.0135 -4.34326 -0.479446
RightFoot  -0.00255272 0.00323707 0.0109449
RightToes  -22.7106 -0.097079 -0.198251
202
root  41.2783 34.8424 55.8828 -169.585 32.5721 -178.357
LeftUpLeg  -15.961 18.088 4.59259
LeftLeg  9.64001 23.4323 2.37556
LeftFoot  11.5781 -0.507502 5.00264
LeftToes  -19.66 2.48695e-006 -1.03773e-007
Spine  3.52458 0.415681 2.38831
Spine1  6.87025 0.795024 4.61788
RightShoulder  0.10753 6.15877 8.22279
RightArm  -33.7244 -10.8541 68.1616
RightForeArm  28.2004 16.5188 2.99283
RightHand  0.32646 -5.91158 -5.9396
LeftShoulder1  0.0291424 0.123126 -8.85061
LeftArm  -9.07845 9.62727 -75.5682
LeftForeArm  31.7318 -16.0911 -2.90769
LeftHand  0.092504 3.10011 3.49021
HEad  4.18608 28.7241 -2.5829
RightUpLeg  -12.3054 -13.7709 3.18562
RightLeg  9.90548 -4.52408 -0.490774
RightFoot  0.366217 0.00513908 -0.0205104
RightToes  -23.7693 -0.103452 -0.206416
203
root  41.0356 34.8627 55.6555 -169.539 32.5548 -178.53
LeftUpLeg  -15.9815 18.3579 3.84549
LeftLeg  9.58969 23.1083 2.32463
LeftFoot  11.0132 -0.451706 4.68288
LeftToes  -19.2788 2.48695e-006 -1.03773e-007
Spine  3.48424 0.329664 2.28065
Spine1  6.78486 0.627497 4.39045
RightShoulder  0.107002 6.25459 8.15244
RightArm  -34.7634 -10.9584 67.547
RightForeArm  27.8618 16.3591 2.96242
RightHand  0.339749 -5.92987 -6.17564
LeftShoulder1  0.0294392 0.0200708 -8.82828
LeftArm  -7.04157 9.69015 -75.9867
LeftForeArm  31.4658 -16.8835 -3.05963
LeftHand  0.0905387 3.08674 2.98272
HEad  4.05246 28.76 -2.55116
RightUpLeg  -12.2549 -13.4558 2.44268
RightLeg  9.70943 -4.89852 -0.51443
RightFoot  0.884349 0.00829963 -0.0705341
RightToes  -25.0938 -0.111636 -0.216463
204
root  40.7831 34.8841 55.4162 -169.561 32.7072 -178.666
LeftUpLeg  -15.8484 18.2123 3.18215
LeftLeg  9.56455 23.3701 2.33942
LeftFoot  10.3067 -0.400352 4.43697
LeftToes  -18.4563 2.48695e-006 -1.03773e-007
Spine  3.48246 0.30222 2.17563
Spine1  6.78079 0.573944 4.17454
RightShoulder  0.106018 6.32623 8.11201
RightArm  -35.4379 -11.0465 66.8884
RightForeArm  27.5659 16.3034 2.95189
RightHand  0.361958 -6.05326 -6.4606
LeftShoulder1  0.0299751 -0.0503037 -8.71916
LeftArm  -5.13588 9.46154 -76.3392
LeftForeArm  33.1433 -17.5866 -3.19424
LeftHand  0.108484 3.19029 3.51652
HEad  4.16441 28.7971 -2.47968
RightUpLeg  -12.1238 -12.9564 1.67237
RightLeg  9.52271 -5.33344 -0.542502
RightFoot  1.43032 0.0122031 -0.13149
RightToes  -26.2346 -0.11887 -0.224962
205
root  40.5235 34.8984 55.1712 -169.681 32.9692 -178.805
LeftUpLeg  -15.6798 18.0156 2.52843
LeftLeg  9.73199 23.8022 2.44833
LeftFoot  9.45222 -0.343648 4.15485
LeftToes  -17.4373 2.48695e-006 -1.03773e-007
Spine  3.5171 0.280509 2.04842
Spine1  6.84661 0.527511 3.92801
RightShoulder  0.104323 6.44819 8.09388
RightArm  -35.9886 -11.0993 66.305
RightForeArm  27.4883 16.2911 2.94957
RightHand  0.376745 -6.07482 -6.71375
LeftShoulder1  0.0308101 -0.0593029 -8.50345
LeftArm  -4.45687 8.86537 -76.4787
LeftForeArm  34.9434 -17.68 -3.2109
LeftHand  0.123926 3.08288 4.22333
HEad  4.51703 28.9401 -2.41954
RightUpLeg  -11.9033 -12.2398 0.851211
RightLeg  9.33584 -5.90829 -0.581419
RightFoot  1.95021 0.0167166 -0.201686
RightToes  -27.3005 -0.125781 -0.232773
206
root  40.2735 34.9061 54.9126 -169.796 33.2404 -178.941
LeftUpLeg  -15.6045 18.1027 1.86434
LeftLeg  10.136 23.8869 2.62174
LeftFoot  8.47527 -0.277419 3.74272
LeftToes  -16.3552 2.48695e-006 -1.03773e-007
Spine  3.53054 0.239823 1.89911
Spine1  6.86438 0.43617 3.65838
RightShoulder  0.101645 6.60378 7.9982
RightArm  -36.4879 -11.2488 65.9682
RightForeArm  27.2127 16.3108 2.95344
RightHand  0.387612 -6.09207 -6.89692
LeftShoulder1  0.0320042 -0.171439 -8.47906
LeftArm  -4.1685 8.30047 -75.9308
LeftForeArm  34.9523 -17.6255 -3.20032
LeftHand  0.0972798 2.49178 4.08937
HEad  5.29297 29.1217 -2.35742
RightUpLeg  -11.6785 -11.8769 0.0542357
RightLeg  9.16922 -6.09438 -0.581824
RightFoot  2.44895 0.0205487 -0.261435
RightToes  -28.5196 -0.133861 -0.241546
